<svg id="visual" viewBox="0 0 900 600" width="900" height="600" xmlns="http://www.w3.org/2000/svg" xmlns:xlink="http://www.w3.org/1999/xlink" version="1.1"><rect x="0" y="0" width="900" height="600" fill="#001220"></rect><defs><linearGradient id="grad1_0" x1="33.3%" y1="0%" x2="100%" y2="100%"><stop offset="20%" stop-color="#001220" stop-opacity="1"></stop><stop offset="80%" stop-color="#001220" stop-opacity="1"></stop></linearGradient></defs><defs><linearGradient id="grad2_0" x1="0%" y1="0%" x2="66.7%" y2="100%"><stop offset="20%" stop-color="#001220" stop-opacity="1"></stop><stop offset="80%" stop-color="#001220" stop-opacity="1"></stop></linearGradient></defs><g transform="translate(900, 0)"><path d="M0 351.5C-21.7 328.6 -43.4 305.7 -68.8 301.3C-94.1 296.8 -123.2 310.9 -149.3 309.9C-175.3 309 -198.4 293 -219.2 274.8C-239.9 256.7 -258.4 236.3 -264.3 210.7C-270.1 185.2 -263.5 154.4 -273.9 131.9C-284.3 109.5 -311.8 95.4 -327.6 74.8C-343.4 54.2 -347.5 27.1 -351.5 0L0 0Z" fill="#d3671f"></path></g><g transform="translate(0, 600)"><path d="M0 -351.5C24.2 -340.5 48.4 -329.5 73.9 -323.7C99.4 -317.8 126.2 -317.1 147.1 -305.4C168 -293.7 183 -271 202.6 -254.1C222.3 -237.2 246.7 -226.1 259.6 -207C272.5 -187.9 273.9 -160.7 288.3 -138.8C302.7 -117 330 -100.5 342.7 -78.2C355.4 -56 353.5 -28 351.5 0L0 0Z" fill="#d3671f"></path></g></svg>